<?xml version="1.0" standalone="no"?><!DOCTYPE svg PUBLIC "-//W3C//DTD SVG 1.1//EN" "http://www.w3.org/Graphics/SVG/1.1/DTD/svg11.dtd"><svg class="icon" width="200px" height="200.00px" viewBox="0 0 1024 1024" version="1.1" xmlns="http://www.w3.org/2000/svg"><path d="M872.95851 829.815962H641.020181c-25.846607 0-46.888786-21.030016-46.888786-46.888786V241.498533c0-25.85877 21.042179-46.888786 46.888786-46.888786h228.593474c18.852819 0 34.117521 15.276865 34.117521 34.117521 0 18.852819-15.276865 34.129684-34.117521 34.129685H662.390764v498.711803h210.579909c18.840656 0 34.117521 15.276865 34.117521 34.117521 0 18.852819-15.289028 34.129684-34.129684 34.129685z m-489.990854 0H151.029327c-18.840656 0-34.117521-15.276865-34.117521-34.129685 0-18.840656 15.276865-34.117521 34.117521-34.117521h210.579909V262.869116H154.374182c-18.852819 0-34.117521-15.276865-34.117521-34.117521 0-18.852819 15.276865-34.129684 34.117521-34.129685h228.593474c25.846607 0 46.888786 21.030016 46.888786 46.888786V782.939339c0 25.846607-21.042179 46.876623-46.888786 46.876623z m129.026262-628.115122c-11.627932 0-21.054342-9.438573-21.054342-21.066505v-53.870411c0-11.627932 9.438573-21.054342 21.054342-21.054342 11.627932 0 21.054342 9.438573 21.054342 21.054342v53.870411c0 11.627932-9.42641 21.066505-21.054342 21.066505z m0 143.403057c-11.627932 0-21.054342-9.438573-21.054342-21.066505v-53.870411c0-11.627932 9.438573-21.066505 21.054342-21.066505 11.627932 0 21.054342 9.438573 21.054342 21.066505v53.870411c0 11.640095-9.42641 21.066505-21.054342 21.066505z m0 143.403058c-11.627932 0-21.054342-9.438573-21.054342-21.054342v-53.870411c0-11.627932 9.438573-21.054342 21.054342-21.054342 11.627932 0 21.054342 9.42641 21.054342 21.054342v53.870411c0 11.627932-9.42641 21.054342-21.054342 21.054342z m0 143.41522c-11.627932 0-21.054342-9.438573-21.054342-21.054342v-53.870411c0-11.627932 9.438573-21.054342 21.054342-21.054342 11.627932 0 21.054342 9.42641 21.054342 21.054342v53.870411c0 11.615769-9.42641 21.054342-21.054342 21.054342z m0 143.390894c-11.627932 0-21.054342-9.438573-21.054342-21.066505v-53.87041c0-11.627932 9.438573-21.054342 21.054342-21.054342 11.627932 0 21.054342 9.438573 21.054342 21.054342v53.87041c0 11.652259-9.42641 21.066505-21.054342 21.066505z m0 143.415221c-11.627932 0-21.054342-9.438573-21.054342-21.066505v-53.870411c0-11.627932 9.438573-21.066505 21.054342-21.066505 11.627932 0 21.054342 9.438573 21.054342 21.066505v53.870411c0 11.640095-9.42641 21.066505-21.054342 21.066505z m0 0" /></svg>